<?xml version="1.0" encoding="UTF-8" standalone="no"?>
<!-- Created with Inkscape (http://www.inkscape.org/) -->

<svg
   width="200"
   height="200"
   viewBox="0 0 52.916664 52.916668"
   version="1.1"
   id="svg827"
   inkscape:version="1.1.1 (3bf5ae0d25, 2021-09-20)"
   sodipodi:docname="Textcavator logo.svg"
   inkscape:export-filename="C:\Users\lukav\Pictures\Docs\Textcavator logo blue.png"
   inkscape:export-xdpi="96"
   inkscape:export-ydpi="96"
   xmlns:inkscape="http://www.inkscape.org/namespaces/inkscape"
   xmlns:sodipodi="http://sodipodi.sourceforge.net/DTD/sodipodi-0.dtd"
   xmlns="http://www.w3.org/2000/svg"
   xmlns:svg="http://www.w3.org/2000/svg"
   xmlns:rdf="http://www.w3.org/1999/02/22-rdf-syntax-ns#"
   xmlns:cc="http://creativecommons.org/ns#"
   xmlns:dc="http://purl.org/dc/elements/1.1/">
  <title
     id="title892">Textcavator logo</title>
  <sodipodi:namedview
     id="namedview829"
     pagecolor="#000000"
     bordercolor="#666666"
     borderopacity="1.0"
     inkscape:pageshadow="2"
     inkscape:pageopacity="0"
     inkscape:pagecheckerboard="0"
     inkscape:document-units="px"
     showgrid="true"
     units="px"
     inkscape:zoom="2.8284271"
     inkscape:cx="53.386562"
     inkscape:cy="75.837202"
     inkscape:window-width="1920"
     inkscape:window-height="1009"
     inkscape:window-x="-8"
     inkscape:window-y="-8"
     inkscape:window-maximized="1"
     inkscape:current-layer="svg827"
     inkscape:snap-object-midpoints="true"
     showguides="true"
     inkscape:snap-grids="true"
     inkscape:snap-to-guides="false"
     inkscape:snap-others="true"
     inkscape:object-nodes="false"
     inkscape:snap-nodes="true"
     inkscape:snap-intersection-paths="true"
     inkscape:snap-bbox="false">
    <inkscape:grid
       type="xygrid"
       id="grid1944" />
  </sodipodi:namedview>
  <defs
     id="defs824" />
  <metadata
     id="metadata888">
    <rdf:RDF>
      <cc:Work
         rdf:about="">
        <cc:license
           rdf:resource="http://creativecommons.org/licenses/by/4.0/" />
        <dc:title>Textcavator logo</dc:title>
        <dc:creator>
          <cc:Agent>
            <dc:title>Luka van der Plas</dc:title>
          </cc:Agent>
        </dc:creator>
      </cc:Work>
      <cc:License
         rdf:about="http://creativecommons.org/licenses/by/4.0/">
        <cc:permits
           rdf:resource="http://creativecommons.org/ns#Reproduction" />
        <cc:permits
           rdf:resource="http://creativecommons.org/ns#Distribution" />
        <cc:requires
           rdf:resource="http://creativecommons.org/ns#Notice" />
        <cc:requires
           rdf:resource="http://creativecommons.org/ns#Attribution" />
        <cc:permits
           rdf:resource="http://creativecommons.org/ns#DerivativeWorks" />
      </cc:License>
    </rdf:RDF>
  </metadata>
  <g
     id="g5562"
     inkscape:label="logo"
     style="display:inline;opacity:1">
    <path
       id="path6095"
       style="color:#000000;display:inline;fill:#303fa1;fill-opacity:1;stroke:none;stroke-width:1;stroke-linejoin:round;-inkscape-stroke:none;paint-order:stroke fill markers"
       inkscape:label="logo blue"
       d="M 44.232304,8.6848334 C 36.655196,1.1077252 25.387528,-0.60541429 16.139406,3.5417226 c 2.289183,0.6762718 4.847338,1.7151828 7.603401,3.2448192 5.93555,-0.8193922 12.16612,1.0599234 16.746993,5.6407962 4.581036,4.581036 6.46041,10.811985 5.640797,16.747725 1.529283,2.755804 2.56761,5.313223 3.243723,7.602304 4.147813,-9.247846 2.435238,-20.51528 -5.142016,-28.0925336 z m -8.887442,8.8867126 c -1.309621,-1.309621 -2.712785,-2.525697 -3.086963,-2.525697 -0.748354,0 -5.238483,4.490128 -5.238483,5.238482 0,0.748355 4.864305,5.612661 5.61266,5.61266 0.748355,0 5.238483,-4.490128 5.238483,-5.238482 0,-0.374178 -1.216076,-1.777343 -2.525697,-3.086963 z m -5.979895,-3.78745 C 15.946457,2.9932475 5.8783969,4.8799096 5.8783969,5.878504 c -2e-7,0.9910421 7.5836791,1.4006982 19.6596571,11.782201 0.05067,-0.06346 0.09793,-0.126668 0.150913,-0.191108 0.515823,-0.627344 1.142162,-1.299287 1.798171,-1.955296 0.629701,-0.629701 1.272279,-1.226687 1.877829,-1.730205 z m 9.766978,9.766978 c -0.503414,0.605655 -1.099039,1.24959 -1.728742,1.879293 -0.656009,0.656009 -1.329411,1.280888 -1.956758,1.796707 -0.06444,0.05299 -0.127379,0.100514 -0.190743,0.151279 10.381503,12.075977 10.791159,19.659658 11.782202,19.659658 0.998604,0 2.885251,-10.068225 -7.905959,-23.486937 z M 25.70066,23.099796 10.518707,38.28175 C 4.7202274,30.501834 5.3545941,19.499244 12.426501,12.427338 c 0.14087,-0.14087 0.283956,-0.278243 0.427892,-0.414007 C 12.366454,11.75365 11.895636,11.512314 11.451228,11.29494 9.9678794,10.56939 8.7431774,10.071116 7.7372254,9.685685 -1.098152,19.53718 -0.78200936,34.764944 8.6850918,44.232046 c 9.4671042,9.467103 24.6938552,9.782234 34.5452652,0.946771 -0.38543,-1.005951 -0.88407,-2.231019 -1.609621,-3.714368 -0.217091,-0.44383 -0.457673,-0.913754 -0.716928,-1.400972 -0.135649,0.143806 -0.273271,0.286405 -0.414017,0.427151 -7.072156,7.072155 -18.075181,7.706199 -25.855143,1.907064 L 29.816602,27.215738 c -0.02414,-0.01995 -0.04726,-0.03744 -0.07162,-0.05773 -0.655678,-0.546396 -1.370678,-1.216477 -2.070035,-1.915833 -0.699352,-0.699352 -1.370529,-1.415455 -1.916927,-2.071129 -0.02019,-0.02423 -0.03752,-0.04724 -0.05736,-0.07125 z" />
  </g>
</svg>
